<svg xmlns="http://www.w3.org/2000/svg" width="1600" height="620" viewBox="0 0 1600 620">
<defs><linearGradient id="g" x2="1" y2="1"><stop stop-color="#163859"/><stop offset="1" stop-color="#397e9d"/></linearGradient></defs><rect width="1600" height="620" fill="url(#g)"/><circle cx="1380" cy="100" r="320" fill="#5fc5b3" opacity=".14"/>
<g transform="translate(1120 100)"><rect width="330" height="420" rx="24" fill="#fff" opacity=".95"/><rect x="85" y="-20" width="160" height="55" rx="16" fill="#5fc5b3"/><g fill="#d5e5ea"><rect x="55" y="100" width="220" height="20" rx="10"/><rect x="55" y="155" width="170" height="18" rx="9"/><rect x="55" y="205" width="220" height="18" rx="9"/><rect x="55" y="255" width="140" height="18" rx="9"/></g><circle cx="80" cy="350" r="35" fill="#5fc5b3"/><path d="m64 350 11 12 23-27" fill="none" stroke="#fff" stroke-width="9" stroke-linecap="round"/></g>
<g font-family="Arial,sans-serif" transform="translate(150 105)"><rect width="205" height="42" rx="21" fill="#5fc5b3"/><text x="102" y="27" text-anchor="middle" font-size="15" font-weight="700" fill="#163859">LAYANAN WARGA</text><text y="125" font-size="64" font-weight="800" fill="#fff">PELAYANAN</text><text y="190" font-size="64" font-weight="800" fill="#68d1be">ADMINISTRASI</text><path d="M0 230h700" stroke="#fff" opacity=".25"/><text y="275" font-size="25" font-weight="700" fill="#fff">SEKRETARIAT RW 26 PENGASINAN</text><text y="320" font-size="20" fill="#d5ebf2">Senin–Jumat  •  19.00–21.00 WIB</text><text y="352" font-size="20" fill="#d5ebf2">Sabtu  •  09.00–12.00 WIB</text><rect y="395" width="275" height="52" rx="10" fill="#fff"/><text x="137" y="428" text-anchor="middle" font-size="16" font-weight="700" fill="#163859">CEPAT • RAMAH • TRANSPARAN</text></g>
</svg>
