<svg xmlns="http://www.w3.org/2000/svg" viewBox="0 0 1200 800" role="img" aria-labelledby="title desc">
  <title id="title">Kerja bakti lingkungan RW 026</title>
  <desc id="desc">Ilustrasi warga membersihkan lingkungan dengan latar rumah dan pepohonan.</desc>
  <defs>
    <linearGradient id="sky" x1="0" y1="0" x2="1" y2="1">
      <stop offset="0" stop-color="#d9f8f2"/>
      <stop offset="1" stop-color="#f8fafc"/>
    </linearGradient>
    <linearGradient id="ground" x1="0" y1="0" x2="1" y2="0">
      <stop offset="0" stop-color="#0f766e"/>
      <stop offset="1" stop-color="#16a34a"/>
    </linearGradient>
  </defs>
  <rect width="1200" height="800" fill="url(#sky)"/>
  <circle cx="1030" cy="130" r="78" fill="#f59e0b" opacity=".9"/>
  <path d="M0 570 C210 500 380 620 595 548 C820 474 970 528 1200 470 L1200 800 L0 800 Z" fill="#bbf7d0"/>
  <path d="M0 638 C250 560 452 682 690 610 C860 558 1010 590 1200 540 L1200 800 L0 800 Z" fill="url(#ground)"/>
  <g transform="translate(95 280)">
    <rect x="0" y="115" width="285" height="205" rx="20" fill="#ffffff"/>
    <path d="M-12 132 L142 22 L300 132 Z" fill="#0f766e"/>
    <rect x="42" y="172" width="64" height="92" rx="8" fill="#d9f8f2"/>
    <rect x="145" y="170" width="92" height="70" rx="10" fill="#bfdbfe"/>
  </g>
  <g transform="translate(830 244)">
    <rect x="0" y="126" width="250" height="185" rx="18" fill="#ffffff"/>
    <path d="M-15 140 L125 42 L266 140 Z" fill="#f59e0b"/>
    <rect x="42" y="184" width="72" height="78" rx="9" fill="#d9f8f2"/>
    <rect x="145" y="184" width="64" height="72" rx="9" fill="#bfdbfe"/>
  </g>
  <g fill="#0f766e">
    <rect x="558" y="295" width="44" height="190" rx="20"/>
    <circle cx="580" cy="268" r="38"/>
    <rect x="655" y="330" width="44" height="170" rx="20"/>
    <circle cx="677" cy="302" r="36"/>
    <rect x="472" y="342" width="42" height="150" rx="19"/>
    <circle cx="493" cy="318" r="33"/>
  </g>
  <g stroke="#ffffff" stroke-width="18" stroke-linecap="round">
    <path d="M550 358 L495 430"/>
    <path d="M615 355 L688 420"/>
    <path d="M460 398 L410 485"/>
  </g>
  <g stroke="#172033" stroke-width="10" stroke-linecap="round">
    <path d="M380 510 L520 445"/>
    <path d="M735 500 L648 420"/>
  </g>
  <g fill="#f8fafc" opacity=".95">
    <rect x="380" y="506" width="155" height="18" rx="9"/>
    <rect x="732" y="498" width="120" height="18" rx="9"/>
  </g>
  <text x="74" y="108" fill="#0b4f49" font-family="Arial, sans-serif" font-size="44" font-weight="700">Kerja Bakti RW 026</text>
  <text x="75" y="160" fill="#475569" font-family="Arial, sans-serif" font-size="26">Bersih, rapi, dan nyaman untuk semua warga.</text>
</svg>
