<svg xmlns="http://www.w3.org/2000/svg" width="1600" height="620" viewBox="0 0 1600 620">
<defs><linearGradient id="g" x2="1" y2="1"><stop stop-color="#f6eee4"/><stop offset="1" stop-color="#efc4ab"/></linearGradient></defs><rect width="1600" height="620" fill="url(#g)"/><circle cx="1330" cy="310" r="350" fill="#c45e53" opacity=".13"/>
<g transform="translate(1080 110)"><circle cx="210" cy="200" r="190" fill="#fff" opacity=".75"/><path d="M210 345C95 275 45 215 45 140c0-70 85-102 165-15 80-87 165-55 165 15 0 75-50 135-165 205Z" fill="#c55f55"/><path d="M210 155v120M150 215h120" stroke="#fff" stroke-width="35" stroke-linecap="round"/></g>
<g font-family="Arial,sans-serif" transform="translate(150 105)"><rect width="210" height="42" rx="21" fill="#c45e53"/><text x="105" y="27" text-anchor="middle" font-size="15" font-weight="700" fill="#fff">INFORMASI KESEHATAN</text><text y="125" font-size="66" font-weight="800" fill="#6d302b">POSYANDU</text><text y="190" font-size="66" font-weight="800" fill="#c45e53">RW 26</text><path d="M0 230h700" stroke="#843b34" opacity=".18"/><text y="275" font-size="25" font-weight="700" fill="#6d302b">MINGGU, 6 JULI 2026  •  08.00–11.00 WIB</text><text y="320" font-size="20" fill="#7f544f">Pemeriksaan ibu dan anak, penimbangan balita,</text><text y="352" font-size="20" fill="#7f544f">imunisasi, dan konsultasi bersama kader.</text><rect y="395" width="183" height="52" rx="10" fill="#6d302b"/><text x="91" y="428" text-anchor="middle" font-size="16" font-weight="700" fill="#fff">AULA RW 26</text></g>
</svg>
