<svg xmlns="http://www.w3.org/2000/svg" width="1600" height="620" viewBox="0 0 1600 620">
<defs><linearGradient id="g" x2="1" y2="1"><stop stop-color="#0b4d37"/><stop offset="1" stop-color="#279566"/></linearGradient><pattern id="p" width="28" height="28" patternUnits="userSpaceOnUse"><circle cx="3" cy="3" r="2" fill="#fff" opacity=".1"/></pattern></defs>
<rect width="1600" height="620" fill="url(#g)"/><rect width="1600" height="620" fill="url(#p)"/><circle cx="1400" cy="120" r="300" fill="#f4bd50" opacity=".15"/>
<g transform="translate(1080 145)"><rect y="85" width="350" height="235" rx="20" fill="#f3e7ce"/><path d="M-30 100 175-25l205 125" fill="#f2b94f"/><rect x="55" y="165" width="85" height="155" rx="8" fill="#146447"/><rect x="210" y="165" width="90" height="72" rx="8" fill="#9ed0b4"/><path d="M0 320h350" stroke="#fff" stroke-width="13" stroke-linecap="round"/></g>
<g font-family="Arial,sans-serif" transform="translate(150 105)"><rect width="174" height="42" rx="21" fill="#f4bd50"/><text x="87" y="27" text-anchor="middle" font-size="15" font-weight="700" fill="#143c2f">HIMBAUAN WARGA</text><text y="125" font-size="67" font-weight="800" fill="#fff">KERJA BAKTI</text><text y="190" font-size="67" font-weight="800" fill="#f4bd50">LINGKUNGAN</text><path d="M0 230h690" stroke="#fff" opacity=".3"/><text y="275" font-size="25" font-weight="700" fill="#fff">MINGGU, 22 JUNI 2026  •  PUKUL 07.00 WIB</text><text y="320" font-size="20" fill="#d9eee4">Berkumpul di lingkungan RT masing-masing.</text><text y="352" font-size="20" fill="#d9eee4">Mari jaga lingkungan kita tetap bersih dan nyaman.</text><rect y="395" width="215" height="52" rx="10" fill="#fff"/><text x="107" y="428" text-anchor="middle" font-size="16" font-weight="700" fill="#176b4d">RW 26 PENGASINAN</text></g>
</svg>
