<svg xmlns="http://www.w3.org/2000/svg" viewBox="0 0 1200 800" role="img" aria-labelledby="title desc">
  <title id="title">Pelayanan administrasi RW 026</title>
  <desc id="desc">Ilustrasi layanan administrasi digital untuk warga.</desc>
  <defs>
    <linearGradient id="bg" x1="0" y1="0" x2="1" y2="1">
      <stop offset="0" stop-color="#f8fafc"/>
      <stop offset=".5" stop-color="#fef3c7"/>
      <stop offset="1" stop-color="#d9f8f2"/>
    </linearGradient>
    <linearGradient id="panel" x1="0" y1="0" x2="1" y2="1">
      <stop offset="0" stop-color="#0f766e"/>
      <stop offset="1" stop-color="#2563eb"/>
    </linearGradient>
  </defs>
  <rect width="1200" height="800" fill="url(#bg)"/>
  <rect x="150" y="145" width="900" height="520" rx="44" fill="#ffffff" opacity=".92"/>
  <rect x="215" y="215" width="405" height="380" rx="30" fill="url(#panel)"/>
  <rect x="680" y="235" width="255" height="46" rx="23" fill="#d9f8f2"/>
  <rect x="680" y="316" width="310" height="34" rx="17" fill="#e2e8f0"/>
  <rect x="680" y="380" width="260" height="34" rx="17" fill="#e2e8f0"/>
  <rect x="680" y="444" width="300" height="34" rx="17" fill="#e2e8f0"/>
  <rect x="680" y="526" width="186" height="54" rx="27" fill="#0f766e"/>
  <g fill="#ffffff">
    <rect x="293" y="288" width="248" height="34" rx="17"/>
    <rect x="293" y="368" width="248" height="34" rx="17" opacity=".84"/>
    <rect x="293" y="448" width="170" height="34" rx="17" opacity=".84"/>
  </g>
  <circle cx="520" cy="250" r="54" fill="#f59e0b"/>
  <path d="M495 252 L516 274 L552 224" fill="none" stroke="#ffffff" stroke-width="16" stroke-linecap="round" stroke-linejoin="round"/>
  <text x="94" y="104" fill="#0b4f49" font-family="Arial, sans-serif" font-size="44" font-weight="700">Pelayanan Administrasi</text>
  <text x="96" y="160" fill="#475569" font-family="Arial, sans-serif" font-size="26">Informasi layanan warga lebih mudah dibaca.</text>
</svg>
